<svg width="60" height="62" viewBox="0 0 60 62" fill="none" xmlns="http://www.w3.org/2000/svg">
<mask id="path-1-inside-1_55_753" fill="white">
<path d="M30.1603 48.7415C30.6455 48.7415 31.1198 48.5936 31.5233 48.3166C31.9267 48.0395 32.2412 47.6458 32.4269 47.1851C32.6126 46.7244 32.6611 46.2174 32.5665 45.7284C32.4718 45.2393 32.2382 44.7901 31.8951 44.4375C31.552 44.0849 31.1148 43.8447 30.6389 43.7474C30.163 43.6502 29.6697 43.7001 29.2214 43.8909C28.7731 44.0817 28.39 44.4049 28.1204 44.8195C27.8508 45.2341 27.707 45.7216 27.707 46.2202C27.707 46.8889 27.9654 47.5302 28.4255 48.003C28.8856 48.4759 29.5096 48.7415 30.1603 48.7415ZM42.427 48.7415C42.9122 48.7415 43.3865 48.5936 43.79 48.3166C44.1934 48.0395 44.5079 47.6458 44.6935 47.1851C44.8792 46.7244 44.9278 46.2174 44.8331 45.7284C44.7385 45.2393 44.5048 44.7901 44.1617 44.4375C43.8186 44.0849 43.3815 43.8447 42.9056 43.7474C42.4297 43.6502 41.9364 43.7001 41.4881 43.8909C41.0398 44.0817 40.6567 44.4049 40.3871 44.8195C40.1175 45.2341 39.9736 45.7216 39.9736 46.2202C39.9736 46.8889 40.2321 47.5302 40.6922 48.003C41.1523 48.4759 41.7763 48.7415 42.427 48.7415ZM42.427 38.6565C42.9122 38.6565 43.3865 38.5087 43.79 38.2316C44.1934 37.9546 44.5079 37.5608 44.6935 37.1001C44.8792 36.6394 44.9278 36.1325 44.8331 35.6434C44.7385 35.1543 44.5048 34.7051 44.1617 34.3525C43.8186 33.9999 43.3815 33.7598 42.9056 33.6625C42.4297 33.5652 41.9364 33.6151 41.4881 33.806C41.0398 33.9968 40.6567 34.3199 40.3871 34.7346C40.1175 35.1492 39.9736 35.6366 39.9736 36.1353C39.9736 36.804 40.2321 37.4452 40.6922 37.9181C41.1523 38.3909 41.7763 38.6565 42.427 38.6565ZM30.1603 38.6565C30.6455 38.6565 31.1198 38.5087 31.5233 38.2316C31.9267 37.9546 32.2412 37.5608 32.4269 37.1001C32.6126 36.6394 32.6611 36.1325 32.5665 35.6434C32.4718 35.1543 32.2382 34.7051 31.8951 34.3525C31.552 33.9999 31.1148 33.7598 30.6389 33.6625C30.163 33.5652 29.6697 33.6151 29.2214 33.806C28.7731 33.9968 28.39 34.3199 28.1204 34.7346C27.8508 35.1492 27.707 35.6366 27.707 36.1353C27.707 36.804 27.9654 37.4452 28.4255 37.9181C28.8856 38.3909 29.5096 38.6565 30.1603 38.6565ZM47.3336 8.40164H44.8803V5.8804C44.8803 5.21173 44.6218 4.57044 44.1617 4.09762C43.7016 3.62479 43.0776 3.35916 42.427 3.35916C41.7763 3.35916 41.1523 3.62479 40.6922 4.09762C40.2321 4.57044 39.9736 5.21173 39.9736 5.8804V8.40164H20.347V5.8804C20.347 5.21173 20.0885 4.57044 19.6284 4.09762C19.1683 3.62479 18.5443 3.35916 17.8936 3.35916C17.243 3.35916 16.6189 3.62479 16.1589 4.09762C15.6988 4.57044 15.4403 5.21173 15.4403 5.8804V8.40164H12.987C11.035 8.40164 9.16292 9.19853 7.78265 10.617C6.40238 12.0355 5.62695 13.9593 5.62695 15.9654V51.2627C5.62695 53.2687 6.40238 55.1926 7.78265 56.6111C9.16292 58.0296 11.035 58.8264 12.987 58.8264H47.3336C49.2856 58.8264 51.1577 58.0296 52.5379 56.6111C53.9182 55.1926 54.6936 53.2687 54.6936 51.2627V15.9654C54.6936 13.9593 53.9182 12.0355 52.5379 10.617C51.1577 9.19853 49.2856 8.40164 47.3336 8.40164ZM49.787 51.2627C49.787 51.9314 49.5285 52.5727 49.0684 53.0455C48.6083 53.5183 47.9843 53.784 47.3336 53.784H12.987C12.3363 53.784 11.7123 53.5183 11.2522 53.0455C10.7921 52.5727 10.5336 51.9314 10.5336 51.2627V28.5716H49.787V51.2627ZM49.787 23.5291H10.5336V15.9654C10.5336 15.2967 10.7921 14.6554 11.2522 14.1826C11.7123 13.7098 12.3363 13.4441 12.987 13.4441H15.4403V15.9654C15.4403 16.634 15.6988 17.2753 16.1589 17.7481C16.6189 18.221 17.243 18.4866 17.8936 18.4866C18.5443 18.4866 19.1683 18.221 19.6284 17.7481C20.0885 17.2753 20.347 16.634 20.347 15.9654V13.4441H39.9736V15.9654C39.9736 16.634 40.2321 17.2753 40.6922 17.7481C41.1523 18.221 41.7763 18.4866 42.427 18.4866C43.0776 18.4866 43.7016 18.221 44.1617 17.7481C44.6218 17.2753 44.8803 16.634 44.8803 15.9654V13.4441H47.3336C47.9843 13.4441 48.6083 13.7098 49.0684 14.1826C49.5285 14.6554 49.787 15.2967 49.787 15.9654V23.5291ZM17.8936 38.6565C18.3788 38.6565 18.8532 38.5087 19.2566 38.2316C19.6601 37.9546 19.9745 37.5608 20.1602 37.1001C20.3459 36.6394 20.3945 36.1325 20.2998 35.6434C20.2052 35.1543 19.9715 34.7051 19.6284 34.3525C19.2853 33.9999 18.8481 33.7598 18.3722 33.6625C17.8963 33.5652 17.4031 33.6151 16.9548 33.806C16.5065 33.9968 16.1233 34.3199 15.8537 34.7346C15.5842 35.1492 15.4403 35.6366 15.4403 36.1353C15.4403 36.804 15.6988 37.4452 16.1589 37.9181C16.6189 38.3909 17.243 38.6565 17.8936 38.6565ZM17.8936 48.7415C18.3788 48.7415 18.8532 48.5936 19.2566 48.3166C19.6601 48.0395 19.9745 47.6458 20.1602 47.1851C20.3459 46.7244 20.3945 46.2174 20.2998 45.7284C20.2052 45.2393 19.9715 44.7901 19.6284 44.4375C19.2853 44.0849 18.8481 43.8447 18.3722 43.7474C17.8963 43.6502 17.4031 43.7001 16.9548 43.8909C16.5065 44.0817 16.1233 44.4049 15.8537 44.8195C15.5842 45.2341 15.4403 45.7216 15.4403 46.2202C15.4403 46.8889 15.6988 47.5302 16.1589 48.003C16.6189 48.4759 17.243 48.7415 17.8936 48.7415Z"/>
</mask>
<path d="M30.1603 48.7415C30.6455 48.7415 31.1198 48.5936 31.5233 48.3166C31.9267 48.0395 32.2412 47.6458 32.4269 47.1851C32.6126 46.7244 32.6611 46.2174 32.5665 45.7284C32.4718 45.2393 32.2382 44.7901 31.8951 44.4375C31.552 44.0849 31.1148 43.8447 30.6389 43.7474C30.163 43.6502 29.6697 43.7001 29.2214 43.8909C28.7731 44.0817 28.39 44.4049 28.1204 44.8195C27.8508 45.2341 27.707 45.7216 27.707 46.2202C27.707 46.8889 27.9654 47.5302 28.4255 48.003C28.8856 48.4759 29.5096 48.7415 30.1603 48.7415ZM42.427 48.7415C42.9122 48.7415 43.3865 48.5936 43.79 48.3166C44.1934 48.0395 44.5079 47.6458 44.6935 47.1851C44.8792 46.7244 44.9278 46.2174 44.8331 45.7284C44.7385 45.2393 44.5048 44.7901 44.1617 44.4375C43.8186 44.0849 43.3815 43.8447 42.9056 43.7474C42.4297 43.6502 41.9364 43.7001 41.4881 43.8909C41.0398 44.0817 40.6567 44.4049 40.3871 44.8195C40.1175 45.2341 39.9736 45.7216 39.9736 46.2202C39.9736 46.8889 40.2321 47.5302 40.6922 48.003C41.1523 48.4759 41.7763 48.7415 42.427 48.7415ZM42.427 38.6565C42.9122 38.6565 43.3865 38.5087 43.79 38.2316C44.1934 37.9546 44.5079 37.5608 44.6935 37.1001C44.8792 36.6394 44.9278 36.1325 44.8331 35.6434C44.7385 35.1543 44.5048 34.7051 44.1617 34.3525C43.8186 33.9999 43.3815 33.7598 42.9056 33.6625C42.4297 33.5652 41.9364 33.6151 41.4881 33.806C41.0398 33.9968 40.6567 34.3199 40.3871 34.7346C40.1175 35.1492 39.9736 35.6366 39.9736 36.1353C39.9736 36.804 40.2321 37.4452 40.6922 37.9181C41.1523 38.3909 41.7763 38.6565 42.427 38.6565ZM30.1603 38.6565C30.6455 38.6565 31.1198 38.5087 31.5233 38.2316C31.9267 37.9546 32.2412 37.5608 32.4269 37.1001C32.6126 36.6394 32.6611 36.1325 32.5665 35.6434C32.4718 35.1543 32.2382 34.7051 31.8951 34.3525C31.552 33.9999 31.1148 33.7598 30.6389 33.6625C30.163 33.5652 29.6697 33.6151 29.2214 33.806C28.7731 33.9968 28.39 34.3199 28.1204 34.7346C27.8508 35.1492 27.707 35.6366 27.707 36.1353C27.707 36.804 27.9654 37.4452 28.4255 37.9181C28.8856 38.3909 29.5096 38.6565 30.1603 38.6565ZM47.3336 8.40164H44.8803V5.8804C44.8803 5.21173 44.6218 4.57044 44.1617 4.09762C43.7016 3.62479 43.0776 3.35916 42.427 3.35916C41.7763 3.35916 41.1523 3.62479 40.6922 4.09762C40.2321 4.57044 39.9736 5.21173 39.9736 5.8804V8.40164H20.347V5.8804C20.347 5.21173 20.0885 4.57044 19.6284 4.09762C19.1683 3.62479 18.5443 3.35916 17.8936 3.35916C17.243 3.35916 16.6189 3.62479 16.1589 4.09762C15.6988 4.57044 15.4403 5.21173 15.4403 5.8804V8.40164H12.987C11.035 8.40164 9.16292 9.19853 7.78265 10.617C6.40238 12.0355 5.62695 13.9593 5.62695 15.9654V51.2627C5.62695 53.2687 6.40238 55.1926 7.78265 56.6111C9.16292 58.0296 11.035 58.8264 12.987 58.8264H47.3336C49.2856 58.8264 51.1577 58.0296 52.5379 56.6111C53.9182 55.1926 54.6936 53.2687 54.6936 51.2627V15.9654C54.6936 13.9593 53.9182 12.0355 52.5379 10.617C51.1577 9.19853 49.2856 8.40164 47.3336 8.40164ZM49.787 51.2627C49.787 51.9314 49.5285 52.5727 49.0684 53.0455C48.6083 53.5183 47.9843 53.784 47.3336 53.784H12.987C12.3363 53.784 11.7123 53.5183 11.2522 53.0455C10.7921 52.5727 10.5336 51.9314 10.5336 51.2627V28.5716H49.787V51.2627ZM49.787 23.5291H10.5336V15.9654C10.5336 15.2967 10.7921 14.6554 11.2522 14.1826C11.7123 13.7098 12.3363 13.4441 12.987 13.4441H15.4403V15.9654C15.4403 16.634 15.6988 17.2753 16.1589 17.7481C16.6189 18.221 17.243 18.4866 17.8936 18.4866C18.5443 18.4866 19.1683 18.221 19.6284 17.7481C20.0885 17.2753 20.347 16.634 20.347 15.9654V13.4441H39.9736V15.9654C39.9736 16.634 40.2321 17.2753 40.6922 17.7481C41.1523 18.221 41.7763 18.4866 42.427 18.4866C43.0776 18.4866 43.7016 18.221 44.1617 17.7481C44.6218 17.2753 44.8803 16.634 44.8803 15.9654V13.4441H47.3336C47.9843 13.4441 48.6083 13.7098 49.0684 14.1826C49.5285 14.6554 49.787 15.2967 49.787 15.9654V23.5291ZM17.8936 38.6565C18.3788 38.6565 18.8532 38.5087 19.2566 38.2316C19.6601 37.9546 19.9745 37.5608 20.1602 37.1001C20.3459 36.6394 20.3945 36.1325 20.2998 35.6434C20.2052 35.1543 19.9715 34.7051 19.6284 34.3525C19.2853 33.9999 18.8481 33.7598 18.3722 33.6625C17.8963 33.5652 17.4031 33.6151 16.9548 33.806C16.5065 33.9968 16.1233 34.3199 15.8537 34.7346C15.5842 35.1492 15.4403 35.6366 15.4403 36.1353C15.4403 36.804 15.6988 37.4452 16.1589 37.9181C16.6189 38.3909 17.243 38.6565 17.8936 38.6565ZM17.8936 48.7415C18.3788 48.7415 18.8532 48.5936 19.2566 48.3166C19.6601 48.0395 19.9745 47.6458 20.1602 47.1851C20.3459 46.7244 20.3945 46.2174 20.2998 45.7284C20.2052 45.2393 19.9715 44.7901 19.6284 44.4375C19.2853 44.0849 18.8481 43.8447 18.3722 43.7474C17.8963 43.6502 17.4031 43.7001 16.9548 43.8909C16.5065 44.0817 16.1233 44.4049 15.8537 44.8195C15.5842 45.2341 15.4403 45.7216 15.4403 46.2202C15.4403 46.8889 15.6988 47.5302 16.1589 48.003C16.6189 48.4759 17.243 48.7415 17.8936 48.7415Z" fill="white" stroke="#6C9B31" stroke-width="5" mask="url(#path-1-inside-1_55_753)"/>
</svg>
