<svg width="60" height="58" viewBox="0 0 60 58" fill="none" xmlns="http://www.w3.org/2000/svg">
<path d="M11.7334 6.43469H19.1133C20.4882 6.41542 21.8225 6.8424 22.9062 7.63684L23.1201 7.8009C24.1685 8.64334 24.8862 9.79323 25.1729 11.0616L25.2246 11.3175C25.2829 11.7404 25.3532 12.1485 25.4375 12.5587L25.5303 12.9874L25.5332 12.9982C25.7286 13.8319 25.9664 14.6556 26.2461 15.4659L26.5391 16.2726C26.8192 17.0238 26.8228 17.8426 26.5508 18.5939L26.4922 18.7443C26.1609 19.5394 25.5329 20.1987 24.7178 20.5851L24.6562 20.6144L24.5977 20.6505L23.5186 21.3156L22.4785 21.9552L23.0947 23.0099C24.4957 25.4083 26.2121 27.6191 28.2012 29.5861L28.21 29.5939L28.2188 29.6027C30.2537 31.5396 32.5473 33.2024 35.0371 34.547L36.167 35.1573L36.7471 34.0109L37.2852 32.9415L37.2861 32.9425C37.6521 32.2188 38.2701 31.6328 39.041 31.2911L39.1973 31.2257C40.0363 30.8983 40.9724 30.881 41.8242 31.1769H41.8252C42.9247 31.5797 44.0527 31.9044 45.2002 32.1495V32.1505C45.5824 32.2346 46.2892 32.4314 46.9658 32.4581C48.2622 32.6924 49.4386 33.3217 50.3252 34.2443L50.501 34.4366C51.3606 35.4132 51.8612 36.6271 51.9375 37.8917L51.9463 38.1261V45.2511C51.9462 46.7957 51.3133 48.2857 50.1719 49.3907C49.029 50.4972 47.4702 51.126 45.8369 51.1261H45.79L45.7441 51.129C45.4938 51.1475 45.2426 51.1466 44.9922 51.129C35.3133 49.9421 26.3004 45.7721 19.2803 39.2531L18.6064 38.6134C11.7078 31.935 7.22955 23.2928 5.81543 13.9777L5.68848 13.0743L5.6875 13.0646L5.65234 12.7521C5.60101 12.1268 5.65471 11.4974 5.81055 10.8878L5.89648 10.5841C6.14994 9.78097 6.58074 9.0373 7.16113 8.40442L7.16016 8.40344C7.65968 7.86363 8.26013 7.41747 8.92969 7.08606L9.22168 6.95032C9.91203 6.65204 10.6539 6.48019 11.4092 6.4425L11.7334 6.43469ZM11.8193 8.73157C11.3701 8.73654 10.9253 8.82163 10.5068 8.98254L10.3291 9.05676C9.91834 9.23946 9.54414 9.49471 9.22559 9.81067L9.0918 9.94934C8.72737 10.3415 8.45404 10.8093 8.29297 11.3204C8.13245 11.8301 8.08852 12.3689 8.16504 12.8976V12.8986C9.32557 21.8089 13.4037 30.1106 19.7812 36.5939L20.4062 37.2159L20.4111 37.2198C27.1458 43.7175 35.8976 47.8807 45.3115 49.0753V49.0763C45.7707 49.1438 46.2385 49.1261 46.6904 49.0245L46.8838 48.9757C47.331 48.85 47.7509 48.6424 48.1211 48.3634L48.2764 48.2394C48.6825 47.8974 49.0099 47.4714 49.2334 46.9894C49.4291 46.5672 49.541 46.1122 49.5615 45.6486L49.5645 45.4503L49.4912 38.0421H49.4893C49.4986 37.3146 49.2861 36.6068 48.8838 36.007L48.6963 35.7511C48.1649 35.0917 47.4201 34.6383 46.5938 34.4581L46.5498 34.4484L46.5049 34.4425L46.0234 34.3693C45.702 34.318 45.3814 34.2611 45.0703 34.1993L44.6123 34.1036L44.6084 34.1027L43.6621 33.88C42.7201 33.644 41.7894 33.3672 40.873 33.0499L39.8066 32.6798L39.3301 33.7042L37.7891 37.0206C37.6632 37.286 37.427 37.504 37.1211 37.6144L37.1016 37.6212L37.082 37.629C36.7867 37.7464 36.4548 37.7472 36.1582 37.6339C29.1014 34.4347 23.3942 29.0147 19.958 22.2794L19.6328 21.6232C19.5859 21.5249 19.5543 21.4216 19.5391 21.3165L19.5293 21.2101C19.5233 21.0678 19.5461 20.9247 19.5977 20.7892C19.6364 20.6875 19.6914 20.5907 19.7607 20.5021L19.835 20.4161C19.914 20.3335 20.0064 20.2615 20.1094 20.2032L20.2158 20.1495L20.2207 20.1476L23.6562 18.6036L24.7402 18.1163L24.3076 17.0089C23.9179 16.0104 23.5943 14.989 23.3389 13.9513L23.2344 13.506L23.2324 13.4991L23.1318 13.047C23.0357 12.593 22.9528 12.1341 22.8828 11.671L22.876 11.629L22.8672 11.588L22.7842 11.2804C22.5919 10.6747 22.2417 10.1322 21.7725 9.70422L21.5283 9.50012C20.8593 8.98846 20.0345 8.72038 19.1934 8.73254V8.73157H11.8193ZM36.4619 18.2374C36.6425 18.2722 36.8092 18.3447 36.9512 18.4464L37.085 18.5577C37.2091 18.6779 37.3011 18.8204 37.3574 18.9728L37.4014 19.1281C37.4337 19.2856 37.43 19.4478 37.3896 19.6036L37.3369 19.757C37.2724 19.9077 37.1725 20.0455 37.043 20.1593L36.9033 20.2648C36.7043 20.3934 36.4664 20.464 36.2197 20.464C36.0969 20.464 35.9753 20.4473 35.8594 20.4132L35.7461 20.3732C35.6344 20.3284 35.5321 20.2684 35.4414 20.1964L35.3545 20.1212C35.272 20.0414 35.2036 19.9509 35.1504 19.8546L35.1025 19.757C35.0454 19.6234 35.0166 19.481 35.0166 19.339C35.0167 19.1792 35.0532 19.0203 35.125 18.8732L35.208 18.7296C35.3354 18.545 35.5215 18.3958 35.7461 18.3058C35.9149 18.2381 36.0976 18.2073 36.2803 18.2159L36.4619 18.2374ZM43.8223 18.2374C44.0029 18.2723 44.1696 18.3447 44.3115 18.4464L44.4453 18.5577C44.5694 18.6779 44.6605 18.8205 44.7168 18.9728L44.7617 19.1281C44.794 19.2856 44.7894 19.4478 44.749 19.6036L44.6973 19.757C44.6328 19.9076 44.5328 20.0455 44.4033 20.1593L44.2637 20.2648C44.0647 20.3934 43.8267 20.4639 43.5801 20.464C43.2896 20.464 43.015 20.3664 42.8018 20.1974L42.7139 20.1212C42.4925 19.9069 42.376 19.624 42.376 19.339C42.376 19.1793 42.4126 19.0202 42.4844 18.8732L42.5684 18.7296C42.6958 18.5451 42.8819 18.3958 43.1064 18.3058C43.275 18.2383 43.4573 18.2074 43.6396 18.2159L43.8223 18.2374ZM51.1816 18.2374C51.3625 18.2722 51.5298 18.3445 51.6719 18.4464L51.8047 18.5577C51.9288 18.6779 52.0208 18.8204 52.0771 18.9728L52.1211 19.1281C52.1534 19.2856 52.1497 19.4478 52.1094 19.6036L52.0566 19.757C51.9921 19.9077 51.8923 20.0455 51.7627 20.1593L51.624 20.2648C51.4249 20.3935 51.1863 20.464 50.9395 20.464C50.6491 20.464 50.3753 20.3663 50.1621 20.1974L50.0742 20.1212C49.8528 19.9069 49.7363 19.624 49.7363 19.339C49.7364 19.1259 49.8017 18.9136 49.9287 18.7296C50.0561 18.5452 50.2415 18.3958 50.4658 18.3058C50.6345 18.2381 50.8174 18.2073 51 18.2159L51.1816 18.2374Z" fill="white" stroke="#6C9B31" stroke-width="2.5"/>
</svg>
