<svg width="16" height="17" viewBox="0 0 16 17" fill="none" xmlns="http://www.w3.org/2000/svg">
<path d="M13.6466 6.20711C13.7785 6.20711 13.9074 6.16801 14.017 6.09475C14.1267 6.0215 14.2121 5.91738 14.2626 5.79556C14.313 5.67374 14.3262 5.5397 14.3005 5.41038C14.2748 5.28106 14.2113 5.16227 14.118 5.06904C14.0248 4.9758 13.906 4.91231 13.7767 4.88658C13.6474 4.86086 13.5133 4.87406 13.3915 4.92452C13.2697 4.97498 13.1656 5.06043 13.0923 5.17006C13.0191 5.27969 12.98 5.40859 12.98 5.54044C12.98 5.71725 13.0502 5.88682 13.1752 6.01184C13.3003 6.13687 13.4698 6.20711 13.6466 6.20711ZM11.6466 6.20711C11.7785 6.20711 11.9074 6.16801 12.017 6.09475C12.1267 6.0215 12.2121 5.91738 12.2626 5.79556C12.313 5.67374 12.3262 5.5397 12.3005 5.41038C12.2748 5.28106 12.2113 5.16227 12.118 5.06904C12.0248 4.9758 11.906 4.91231 11.7767 4.88658C11.6474 4.86086 11.5133 4.87406 11.3915 4.92452C11.2697 4.97498 11.1656 5.06043 11.0923 5.17006C11.0191 5.27969 10.98 5.40859 10.98 5.54044C10.98 5.71725 11.0502 5.88682 11.1752 6.01184C11.3003 6.13687 11.4698 6.20711 11.6466 6.20711ZM9.64664 6.20711C9.7785 6.20711 9.90739 6.16801 10.017 6.09475C10.1267 6.0215 10.2121 5.91738 10.2626 5.79556C10.313 5.67374 10.3262 5.5397 10.3005 5.41038C10.2748 5.28106 10.2113 5.16227 10.118 5.06904C10.0248 4.9758 9.90602 4.91231 9.7767 4.88658C9.64738 4.86086 9.51334 4.87406 9.39152 4.92452C9.2697 4.97498 9.16558 5.06043 9.09233 5.17006C9.01908 5.27969 8.97998 5.40859 8.97998 5.54044C8.97998 5.62799 8.99722 5.71468 9.03072 5.79556C9.06423 5.87645 9.11333 5.94994 9.17524 6.01184C9.23714 6.07375 9.31064 6.12286 9.39152 6.15636C9.4724 6.18986 9.5591 6.20711 9.64664 6.20711ZM12.6066 8.87377C12.46 8.87377 12.3066 8.82711 12.16 8.79377C11.863 8.72832 11.5711 8.64143 11.2866 8.53377C10.9774 8.42126 10.6374 8.4271 10.3322 8.55018C10.027 8.67325 9.77803 8.90486 9.63331 9.20044L9.48664 9.50044C8.83631 9.13766 8.23763 8.68921 7.70664 8.16711C7.18709 7.63639 6.73888 7.04026 6.37331 6.39377L6.66664 6.20711C6.96222 6.06238 7.19383 5.81346 7.31691 5.50823C7.43998 5.20301 7.44582 4.86305 7.33331 4.55377C7.22746 4.26872 7.1406 3.97697 7.07331 3.68044C7.03998 3.52711 7.01331 3.38044 6.99331 3.22711C6.91235 2.75752 6.66639 2.33227 6.29972 2.02793C5.93305 1.7236 5.46977 1.56018 4.99331 1.56711H2.99331C2.71147 1.56674 2.43274 1.62594 2.17539 1.74083C1.91803 1.85572 1.68787 2.0237 1.49998 2.23377C1.3091 2.44877 1.16682 2.70239 1.08284 2.97735C0.998857 3.25231 0.975141 3.54215 1.01331 3.82711C1.36445 6.61847 2.63489 9.21349 4.62424 11.2028C6.61359 13.1922 9.20861 14.4626 12 14.8138C12.0865 14.8204 12.1734 14.8204 12.26 14.8138C12.7904 14.8138 13.2991 14.6031 13.6742 14.228C14.0493 13.8529 14.26 13.3442 14.26 12.8138V10.8138C14.2531 10.3486 14.0842 9.90036 13.7824 9.54627C13.4806 9.19217 13.0648 8.95436 12.6066 8.87377ZM12.9333 12.8738C12.9344 12.9704 12.9145 13.0661 12.8749 13.1543C12.8353 13.2425 12.7771 13.321 12.7041 13.3844C12.6312 13.4478 12.5454 13.4946 12.4526 13.5216C12.3597 13.5485 12.2622 13.5549 12.1666 13.5404C9.67741 13.2156 7.36471 12.0792 5.58664 10.3071C3.80998 8.51701 2.67547 6.1894 2.35998 3.68711C2.34549 3.58933 2.35293 3.48956 2.38176 3.39501C2.41058 3.30046 2.46007 3.21351 2.52664 3.14044C2.58837 3.07016 2.6642 3.01366 2.74919 2.97461C2.83418 2.93556 2.92645 2.91483 3.01998 2.91377H5.01998C5.17501 2.91032 5.32639 2.96103 5.44807 3.05715C5.56975 3.15328 5.65412 3.28882 5.68664 3.44044C5.71331 3.62266 5.74664 3.80266 5.78664 3.98044C5.86366 4.33187 5.96615 4.67723 6.09331 5.01377L5.15998 5.44711C5.08017 5.48372 5.00839 5.53574 4.94875 5.60017C4.8891 5.6646 4.84278 5.74018 4.81242 5.82257C4.78207 5.90496 4.76829 5.99253 4.77187 6.08025C4.77546 6.16798 4.79634 6.25414 4.83331 6.33377C5.79278 8.38894 7.44481 10.041 9.49998 11.0004C9.66228 11.0671 9.84434 11.0671 10.0066 11.0004C10.1721 10.9389 10.3063 10.8142 10.38 10.6538L10.8 9.72044C11.1446 9.84369 11.4964 9.9461 11.8533 10.0271C12.0266 10.0671 12.2133 10.1004 12.3933 10.1271C12.5437 10.161 12.6777 10.2459 12.7725 10.3675C12.8673 10.489 12.9171 10.6397 12.9133 10.7938L12.9333 12.8738Z" fill="#141414"/>
</svg>
