<svg width="32" height="32" viewBox="0 0 32 32" fill="none" xmlns="http://www.w3.org/2000/svg">
<g id="u:money-withdrawal">
<g id="Vector">
<path d="M29.3333 2.66663H2.66668C2.31305 2.66663 1.97392 2.8071 1.72387 3.05715C1.47382 3.3072 1.33334 3.64634 1.33334 3.99996V14.6666C1.33334 15.0202 1.47382 15.3594 1.72387 15.6094C1.97392 15.8595 2.31305 16 2.66668 16H6.66668V28C6.66668 28.3536 6.80715 28.6927 7.0572 28.9428C7.30725 29.1928 7.64639 29.3333 8.00001 29.3333H24C24.3536 29.3333 24.6928 29.1928 24.9428 28.9428C25.1929 28.6927 25.3333 28.3536 25.3333 28V16H29.3333C29.687 16 30.0261 15.8595 30.2762 15.6094C30.5262 15.3594 30.6667 15.0202 30.6667 14.6666V3.99996C30.6667 3.64634 30.5262 3.3072 30.2762 3.05715C30.0261 2.8071 29.687 2.66663 29.3333 2.66663ZM9.33334 26.6666V24C10.0406 24 10.7189 24.2809 11.219 24.781C11.7191 25.2811 12 25.9594 12 26.6666H9.33334ZM22.6667 26.6666H20C20 25.9594 20.281 25.2811 20.7811 24.781C21.2812 24.2809 21.9594 24 22.6667 24V26.6666ZM22.6667 21.3333C21.2522 21.3333 19.8956 21.8952 18.8954 22.8954C17.8952 23.8956 17.3333 25.2521 17.3333 26.6666H14.6667C14.6667 25.2521 14.1048 23.8956 13.1046 22.8954C12.1044 21.8952 10.7478 21.3333 9.33334 21.3333V10.6666H22.6667V21.3333ZM28 13.3333H25.3333V9.33329C25.3333 8.97967 25.1929 8.64053 24.9428 8.39048C24.6928 8.14044 24.3536 7.99996 24 7.99996H8.00001C7.64639 7.99996 7.30725 8.14044 7.0572 8.39048C6.80715 8.64053 6.66668 8.97967 6.66668 9.33329V13.3333H4.00001V5.33329H28V13.3333ZM16 20C16.7911 20 17.5645 19.7654 18.2223 19.3258C18.8801 18.8863 19.3928 18.2616 19.6955 17.5307C19.9983 16.7998 20.0775 15.9955 19.9232 15.2196C19.7688 14.4437 19.3878 13.7309 18.8284 13.1715C18.269 12.6121 17.5563 12.2312 16.7804 12.0768C16.0044 11.9225 15.2002 12.0017 14.4693 12.3044C13.7384 12.6072 13.1137 13.1199 12.6741 13.7777C12.2346 14.4355 12 15.2088 12 16C12 17.0608 12.4214 18.0782 13.1716 18.8284C13.9217 19.5785 14.9391 20 16 20ZM16 14.6666C16.2637 14.6666 16.5215 14.7448 16.7408 14.8913C16.96 15.0378 17.1309 15.2461 17.2318 15.4897C17.3328 15.7333 17.3592 16.0014 17.3077 16.2601C17.2563 16.5187 17.1293 16.7563 16.9428 16.9428C16.7563 17.1292 16.5188 17.2562 16.2601 17.3077C16.0015 17.3591 15.7334 17.3327 15.4898 17.2318C15.2461 17.1309 15.0379 16.96 14.8914 16.7407C14.7449 16.5215 14.6667 16.2637 14.6667 16C14.6667 15.6463 14.8072 15.3072 15.0572 15.0572C15.3072 14.8071 15.6464 14.6666 16 14.6666Z" fill="#141F14"/>
<path d="M29.3333 2.66663H2.66668C2.31305 2.66663 1.97392 2.8071 1.72387 3.05715C1.47382 3.3072 1.33334 3.64634 1.33334 3.99996V14.6666C1.33334 15.0202 1.47382 15.3594 1.72387 15.6094C1.97392 15.8595 2.31305 16 2.66668 16H6.66668V28C6.66668 28.3536 6.80715 28.6927 7.0572 28.9428C7.30725 29.1928 7.64639 29.3333 8.00001 29.3333H24C24.3536 29.3333 24.6928 29.1928 24.9428 28.9428C25.1929 28.6927 25.3333 28.3536 25.3333 28V16H29.3333C29.687 16 30.0261 15.8595 30.2762 15.6094C30.5262 15.3594 30.6667 15.0202 30.6667 14.6666V3.99996C30.6667 3.64634 30.5262 3.3072 30.2762 3.05715C30.0261 2.8071 29.687 2.66663 29.3333 2.66663ZM9.33334 26.6666V24C10.0406 24 10.7189 24.2809 11.219 24.781C11.7191 25.2811 12 25.9594 12 26.6666H9.33334ZM22.6667 26.6666H20C20 25.9594 20.281 25.2811 20.7811 24.781C21.2812 24.2809 21.9594 24 22.6667 24V26.6666ZM22.6667 21.3333C21.2522 21.3333 19.8956 21.8952 18.8954 22.8954C17.8952 23.8956 17.3333 25.2521 17.3333 26.6666H14.6667C14.6667 25.2521 14.1048 23.8956 13.1046 22.8954C12.1044 21.8952 10.7478 21.3333 9.33334 21.3333V10.6666H22.6667V21.3333ZM28 13.3333H25.3333V9.33329C25.3333 8.97967 25.1929 8.64053 24.9428 8.39048C24.6928 8.14044 24.3536 7.99996 24 7.99996H8.00001C7.64639 7.99996 7.30725 8.14044 7.0572 8.39048C6.80715 8.64053 6.66668 8.97967 6.66668 9.33329V13.3333H4.00001V5.33329H28V13.3333ZM16 20C16.7911 20 17.5645 19.7654 18.2223 19.3258C18.8801 18.8863 19.3928 18.2616 19.6955 17.5307C19.9983 16.7998 20.0775 15.9955 19.9232 15.2196C19.7688 14.4437 19.3878 13.7309 18.8284 13.1715C18.269 12.6121 17.5563 12.2312 16.7804 12.0768C16.0044 11.9225 15.2002 12.0017 14.4693 12.3044C13.7384 12.6072 13.1137 13.1199 12.6741 13.7777C12.2346 14.4355 12 15.2088 12 16C12 17.0608 12.4214 18.0782 13.1716 18.8284C13.9217 19.5785 14.9391 20 16 20ZM16 14.6666C16.2637 14.6666 16.5215 14.7448 16.7408 14.8913C16.96 15.0378 17.1309 15.2461 17.2318 15.4897C17.3328 15.7333 17.3592 16.0014 17.3077 16.2601C17.2563 16.5187 17.1293 16.7563 16.9428 16.9428C16.7563 17.1292 16.5188 17.2562 16.2601 17.3077C16.0015 17.3591 15.7334 17.3327 15.4898 17.2318C15.2461 17.1309 15.0379 16.96 14.8914 16.7407C14.7449 16.5215 14.6667 16.2637 14.6667 16C14.6667 15.6463 14.8072 15.3072 15.0572 15.0572C15.3072 14.8071 15.6464 14.6666 16 14.6666Z" stroke="#141F14"/>
</g>
</g>
</svg>
