<svg width="32" height="32" viewBox="0 0 32 32" fill="none" xmlns="http://www.w3.org/2000/svg">
<g id="u:money-insert">
<path id="Vector" d="M13.9467 8.00002L14.6667 7.21336V12C14.6667 12.3536 14.8072 12.6928 15.0572 12.9428C15.3072 13.1929 15.6464 13.3334 16 13.3334C16.3536 13.3334 16.6928 13.1929 16.9428 12.9428C17.1929 12.6928 17.3333 12.3536 17.3333 12V7.21336L18.0533 7.94669C18.1744 8.08339 18.3222 8.19377 18.4876 8.271C18.6531 8.34823 18.8326 8.39066 19.0151 8.39566C19.1976 8.40066 19.3792 8.36813 19.5486 8.30007C19.718 8.23201 19.8717 8.12989 20 8.00002C20.125 7.87607 20.2242 7.72861 20.2919 7.56613C20.3596 7.40365 20.3944 7.22937 20.3944 7.05336C20.3944 6.87734 20.3596 6.70307 20.2919 6.54059C20.2242 6.37811 20.125 6.23064 20 6.10669L16.9467 3.05336C16.8199 2.93197 16.6703 2.83682 16.5067 2.77336C16.1821 2.64 15.818 2.64 15.4933 2.77336C15.3297 2.83682 15.1801 2.93197 15.0533 3.05336L12 6.05336C11.7419 6.3115 11.5968 6.66162 11.5968 7.02669C11.5968 7.39176 11.7419 7.74188 12 8.00002C12.2582 8.25817 12.6083 8.40319 12.9733 8.40319C13.3384 8.40319 13.6885 8.25817 13.9467 8.00002ZM16 16C15.2089 16 14.4355 16.2346 13.7777 16.6741C13.1199 17.1137 12.6072 17.7384 12.3045 18.4693C12.0017 19.2002 11.9225 20.0045 12.0769 20.7804C12.2312 21.5563 12.6122 22.269 13.1716 22.8285C13.731 23.3879 14.4437 23.7688 15.2196 23.9232C15.9956 24.0775 16.7998 23.9983 17.5307 23.6955C18.2616 23.3928 18.8864 22.8801 19.3259 22.2223C19.7654 21.5645 20 20.7911 20 20C20 18.9392 19.5786 17.9217 18.8284 17.1716C18.0783 16.4215 17.0609 16 16 16ZM16 21.3334C15.7363 21.3334 15.4785 21.2552 15.2592 21.1087C15.04 20.9621 14.8691 20.7539 14.7682 20.5103C14.6673 20.2666 14.6408 19.9985 14.6923 19.7399C14.7437 19.4813 14.8707 19.2437 15.0572 19.0572C15.2437 18.8707 15.4812 18.7438 15.7399 18.6923C15.9985 18.6409 16.2666 18.6673 16.5103 18.7682C16.7539 18.8691 16.9621 19.04 17.1086 19.2593C17.2551 19.4785 17.3333 19.7363 17.3333 20C17.3333 20.3536 17.1929 20.6928 16.9428 20.9428C16.6928 21.1929 16.3536 21.3334 16 21.3334ZM6.66668 20C6.66668 20.2637 6.74488 20.5215 6.89138 20.7408C7.03789 20.9601 7.24613 21.1309 7.48977 21.2319C7.7334 21.3328 8.00149 21.3592 8.26013 21.3077C8.51877 21.2563 8.75635 21.1293 8.94282 20.9428C9.12929 20.7564 9.25628 20.5188 9.30772 20.2601C9.35917 20.0015 9.33277 19.7334 9.23185 19.4898C9.13093 19.2461 8.96004 19.0379 8.74077 18.8914C8.5215 18.7449 8.26372 18.6667 8.00001 18.6667C7.64639 18.6667 7.30725 18.8072 7.0572 19.0572C6.80715 19.3073 6.66668 19.6464 6.66668 20ZM25.3333 20C25.3333 19.7363 25.2551 19.4785 25.1086 19.2593C24.9621 19.04 24.7539 18.8691 24.5103 18.7682C24.2666 18.6673 23.9985 18.6409 23.7399 18.6923C23.4812 18.7438 23.2437 18.8707 23.0572 19.0572C22.8707 19.2437 22.7437 19.4813 22.6923 19.7399C22.6408 19.9985 22.6673 20.2666 22.7682 20.5103C22.8691 20.7539 23.04 20.9621 23.2592 21.1087C23.4785 21.2552 23.7363 21.3334 24 21.3334C24.3536 21.3334 24.6928 21.1929 24.9428 20.9428C25.1929 20.6928 25.3333 20.3536 25.3333 20ZM26.6667 10.6667H21.3333C20.9797 10.6667 20.6406 10.8072 20.3905 11.0572C20.1405 11.3073 20 11.6464 20 12C20 12.3536 20.1405 12.6928 20.3905 12.9428C20.6406 13.1929 20.9797 13.3334 21.3333 13.3334H26.6667C27.0203 13.3334 27.3594 13.4738 27.6095 13.7239C27.8595 13.9739 28 14.3131 28 14.6667V25.3334C28 25.687 27.8595 26.0261 27.6095 26.2762C27.3594 26.5262 27.0203 26.6667 26.6667 26.6667H5.33334C4.97972 26.6667 4.64058 26.5262 4.39053 26.2762C4.14049 26.0261 4.00001 25.687 4.00001 25.3334V14.6667C4.00001 14.3131 4.14049 13.9739 4.39053 13.7239C4.64058 13.4738 4.97972 13.3334 5.33334 13.3334H10.6667C11.0203 13.3334 11.3594 13.1929 11.6095 12.9428C11.8595 12.6928 12 12.3536 12 12C12 11.6464 11.8595 11.3073 11.6095 11.0572C11.3594 10.8072 11.0203 10.6667 10.6667 10.6667H5.33334C4.27248 10.6667 3.25506 11.0881 2.50492 11.8383C1.75477 12.5884 1.33334 13.6058 1.33334 14.6667V25.3334C1.33334 26.3942 1.75477 27.4116 2.50492 28.1618C3.25506 28.9119 4.27248 29.3334 5.33334 29.3334H26.6667C27.7275 29.3334 28.745 28.9119 29.4951 28.1618C30.2452 27.4116 30.6667 26.3942 30.6667 25.3334V14.6667C30.6667 13.6058 30.2452 12.5884 29.4951 11.8383C28.745 11.0881 27.7275 10.6667 26.6667 10.6667Z" fill="#141F14"/>
</g>
</svg>
