<svg width="60" height="61" viewBox="0 0 60 61" fill="none" xmlns="http://www.w3.org/2000/svg">
<path d="M12.4713 26.5572H7.56466C6.914 26.5572 6.28998 26.8229 5.82989 27.2957C5.3698 27.7685 5.11133 28.4098 5.11133 29.0785C5.11133 29.7472 5.3698 30.3884 5.82989 30.8613C6.28998 31.3341 6.914 31.5997 7.56466 31.5997H12.4713C13.122 31.5997 13.746 31.3341 14.2061 30.8613C14.6662 30.3884 14.9247 29.7472 14.9247 29.0785C14.9247 28.4098 14.6662 27.7685 14.2061 27.2957C13.746 26.8229 13.122 26.5572 12.4713 26.5572ZM53.6383 19.3969V19.2456C52.9354 18.3627 52.0472 17.6546 51.0403 17.1743C50.0334 16.694 48.9338 16.454 47.8239 16.4723H28.3689C26.5662 16.4556 24.8203 17.1195 23.4623 18.338C22.1939 19.4865 21.36 21.0577 21.1071 22.7754L18.9481 35.3816C18.7625 36.4702 18.8112 37.5875 19.091 38.6547C19.3707 39.7219 19.8747 40.7131 20.5673 41.5586C21.2564 42.4013 22.1161 43.0793 23.0864 43.5452C24.0568 44.0112 25.1144 44.2539 26.1855 44.2564H45.6649C47.4148 44.2835 49.1168 43.6691 50.4656 42.5232C51.8144 41.3773 52.7218 39.775 53.0249 38.0037L55.1839 25.3975C55.3539 24.3418 55.3041 23.2611 55.0376 22.2268C54.7712 21.1924 54.2942 20.2279 53.6383 19.3969ZM46.9161 21.5148L38.5748 28.4734C38.0816 28.8819 37.4538 29.0785 36.8228 29.0221C36.1917 28.9657 35.6064 28.6607 35.1892 28.1708L29.4729 21.5148H46.9161ZM48.0937 37.0708C47.9944 37.6628 47.6927 38.1989 47.2429 38.5825C46.7931 38.9662 46.2249 39.1722 45.6404 39.1634H26.1855C25.8292 39.1604 25.4778 39.0776 25.1558 38.9208C24.8338 38.7641 24.5489 38.5372 24.3209 38.2558C24.0923 37.9759 23.9257 37.6483 23.8325 37.2957C23.7393 36.9431 23.7218 36.5739 23.7812 36.2136L25.7439 24.7924L31.5092 31.4989C32.7641 32.9646 34.5219 33.875 36.4149 34.0394C38.3079 34.2039 40.1895 33.6098 41.666 32.3813L50.1055 25.2966L48.0937 37.0708ZM14.9247 16.4723H7.56466C6.914 16.4723 6.28998 16.7379 5.82989 17.2107C5.3698 17.6836 5.11133 18.3248 5.11133 18.9935C5.11133 19.6622 5.3698 20.3035 5.82989 20.7763C6.28998 21.2491 6.914 21.5148 7.56466 21.5148H14.9247C15.5753 21.5148 16.1993 21.2491 16.6594 20.7763C17.1195 20.3035 17.378 19.6622 17.378 18.9935C17.378 18.3248 17.1195 17.6836 16.6594 17.2107C16.1993 16.7379 15.5753 16.4723 14.9247 16.4723Z" fill="#6C9B31"/>
</svg>
