<svg width="60" height="58" viewBox="0 0 60 58" fill="none" xmlns="http://www.w3.org/2000/svg">
<path d="M50.9161 23.2107C50.5716 19.7406 49.3048 16.416 47.239 13.5607C45.1731 10.7053 42.3787 8.41645 39.1278 6.91702C35.8769 5.4176 32.2803 4.75869 28.6882 5.00446C25.0961 5.25023 21.631 6.39231 18.6302 8.31948C16.0522 9.98826 13.8881 12.1891 12.2931 14.7638C10.6982 17.3385 9.71209 20.2232 9.40568 23.2107C9.1051 26.1787 9.49075 29.1742 10.5346 31.9799C11.5785 34.7856 13.2545 37.3312 15.4409 39.432L28.4435 52.0432C28.6716 52.2658 28.943 52.4425 29.2419 52.5631C29.5409 52.6837 29.8615 52.7458 30.1854 52.7458C30.5093 52.7458 30.8299 52.6837 31.1289 52.5631C31.4279 52.4425 31.6992 52.2658 31.9273 52.0432L44.8809 39.432C47.0673 37.3312 48.7432 34.7856 49.7871 31.9799C50.831 29.1742 51.2167 26.1787 50.9161 23.2107ZM41.4462 36.0832L30.1609 47.0082L18.8755 36.0832C17.2124 34.4731 15.9384 32.5263 15.1452 30.3827C14.3519 28.2391 14.0591 25.9519 14.2878 23.6857C14.518 21.3846 15.2735 19.1617 16.4997 17.1779C17.7259 15.194 19.3921 13.4987 21.3779 12.2145C23.9808 10.5407 27.0361 9.6478 30.1609 9.6478C33.2857 9.6478 36.341 10.5407 38.9438 12.2145C40.9236 13.4937 42.5862 15.1815 43.8121 17.1567C45.038 19.1319 45.7968 21.3454 46.0339 23.6382C46.2701 25.9121 45.981 28.2084 45.1875 30.3608C44.3941 32.5132 43.1161 34.4678 41.4462 36.0832ZM30.1609 14.5895C27.9774 14.5895 25.8429 15.2163 24.0274 16.3906C22.2119 17.565 20.7968 19.2342 19.9613 21.187C19.1257 23.1399 18.907 25.2888 19.333 27.362C19.759 29.4352 20.8105 31.3395 22.3544 32.8342C23.8984 34.3289 25.8655 35.3467 28.0071 35.7591C30.1486 36.1715 32.3684 35.9599 34.3857 35.1509C36.403 34.342 38.1272 32.9722 39.3403 31.2146C40.5534 29.4571 41.2009 27.3908 41.2009 25.277C41.1944 22.4444 40.0292 19.7296 37.9602 17.7267C35.8912 15.7238 33.0869 14.5958 30.1609 14.5895ZM30.1609 31.2145C28.9478 31.2145 27.762 30.8663 26.7534 30.2138C25.7448 29.5614 24.9586 28.6341 24.4944 27.5492C24.0302 26.4642 23.9087 25.2704 24.1454 24.1186C24.3821 22.9669 24.9662 21.9089 25.824 21.0785C26.6817 20.2482 27.7746 19.6827 28.9643 19.4536C30.1541 19.2245 31.3873 19.342 32.508 19.7914C33.6287 20.2408 34.5866 21.0019 35.2606 21.9783C35.9345 22.9547 36.2942 24.1027 36.2942 25.277C36.2942 26.8517 35.648 28.3619 34.4978 29.4754C33.3476 30.5889 31.7875 31.2145 30.1609 31.2145Z" fill="#6C9B31"/>
</svg>
