<svg width="16" height="17" viewBox="0 0 16 17" fill="none" xmlns="http://www.w3.org/2000/svg">
<path d="M14 7.87372C14.0023 8.75363 13.7967 9.62164 13.4 10.4071C12.9296 11.3482 12.2065 12.1398 11.3116 12.6932C10.4168 13.2466 9.3855 13.54 8.33333 13.5404C7.45342 13.5427 6.58541 13.3371 5.8 12.9404L2 14.2071L3.26667 10.4071C2.86995 9.62164 2.66437 8.75363 2.66667 7.87372C2.66707 6.82156 2.96041 5.79028 3.51381 4.89542C4.06722 4.00055 4.85884 3.27743 5.8 2.80705C6.58541 2.41034 7.45342 2.20476 8.33333 2.20705H8.66667C10.0562 2.28371 11.3687 2.87022 12.3528 3.85429C13.3368 4.83835 13.9233 6.15082 14 7.54038V7.87372Z" stroke="#141414" stroke-linecap="round" stroke-linejoin="round"/>
</svg>
