<svg width="26" height="25" viewBox="0 0 26 25" fill="none" xmlns="http://www.w3.org/2000/svg">
<g clip-path="url(#clip0_52_230)">
<path d="M17.6804 15.3145C17.4635 15.2486 17.2555 15.1179 17.052 15.0079C16.639 14.7877 16.2423 14.5414 15.8649 14.271C15.4528 13.9829 14.9476 13.8381 14.4466 13.8644C13.9456 13.8907 13.4842 14.0862 13.1511 14.4134L12.8134 14.7456C11.9984 13.9749 11.2965 13.112 10.7273 12.1808C10.1653 11.2463 9.74192 10.2533 9.46905 9.22972L9.95834 9.10774C10.4538 9.04839 10.8966 8.82209 11.2015 8.47238C11.5064 8.12268 11.6519 7.67428 11.61 7.21347C11.5682 6.78779 11.5571 6.36174 11.577 5.93814C11.5867 5.72859 11.609 5.5132 11.6411 5.3008C11.7104 4.64147 11.5178 3.9669 11.098 3.39858C10.6782 2.83026 10.0588 2.40553 9.35123 2.20088L6.39308 1.30328C5.9692 1.17076 5.52453 1.12166 5.08932 1.15933C4.65411 1.19699 4.23858 1.32054 3.87103 1.52157C3.50348 1.72259 3.19253 1.99637 2.95935 2.32426C2.72617 2.65215 2.57624 3.02646 2.51976 3.4217C1.92074 7.28644 2.7627 11.3017 4.91264 14.8331C7.06258 18.3646 10.398 21.211 14.3919 22.9227L14.7666 23.0364C15.4934 23.258 16.2681 23.2318 16.9427 22.9626C17.3306 22.807 17.6729 22.5759 17.9469 22.2844C18.221 21.9929 18.4206 21.6478 18.5326 21.2718L19.3377 18.6184C19.512 18.0004 19.4421 17.3332 19.1399 16.7306C18.8376 16.128 18.3218 15.6275 17.6804 15.3145ZM16.5632 20.7708C16.5249 20.8964 16.4573 21.0114 16.3648 21.1082C16.2723 21.205 16.157 21.2815 16.0267 21.3324C15.8906 21.3843 15.7424 21.409 15.5916 21.4048C15.4408 21.4006 15.2908 21.3677 15.151 21.3082C11.587 19.763 8.61669 17.2068 6.70854 14.0429C4.80039 10.8789 4.06302 7.28736 4.61275 3.83462C4.63637 3.7003 4.6899 3.57341 4.77009 3.46161C4.85028 3.34981 4.95549 3.25543 5.07933 3.18417C5.20036 3.11786 5.33705 3.07676 5.4803 3.0636C5.62354 3.05044 5.77007 3.06553 5.91012 3.10785L8.86828 4.00545C9.09897 4.07045 9.30247 4.20566 9.44375 4.3878C9.58503 4.56994 9.65524 4.78762 9.64232 5.00338C9.6084 5.2571 9.58525 5.51086 9.57284 5.76467C9.54528 6.26547 9.55785 6.76965 9.61045 7.27322L8.05553 7.42924C7.92276 7.442 7.79564 7.47879 7.68149 7.53751C7.56733 7.59622 7.46838 7.6757 7.39032 7.77138C7.31226 7.86706 7.25663 7.97706 7.22661 8.09505C7.1966 8.21305 7.1928 8.33672 7.21542 8.45897C7.80722 11.6162 9.58566 14.5493 12.2392 16.7446C12.4524 16.9059 12.7217 16.9876 12.9886 16.972C13.1235 16.9699 13.255 16.9432 13.3755 16.8935C13.4959 16.8438 13.6029 16.7721 13.6902 16.6826L14.6773 15.6299C15.1374 15.9481 15.6164 16.2418 16.1118 16.5095C16.3586 16.6423 16.6114 16.7673 16.8702 16.8845C17.0814 16.9957 17.2479 17.1684 17.3411 17.373C17.4343 17.5776 17.4483 17.8012 17.3808 18.0053L16.5632 20.7708Z" fill="#6C9B31"/>
</g>
<defs>
<clipPath id="clip0_52_230">
<rect width="24.7307" height="22.1828" fill="white" transform="translate(2 -2) rotate(16.8795)"/>
</clipPath>
</defs>
</svg>
