<svg width="211" height="155" viewBox="0 0 211 155" fill="none" xmlns="http://www.w3.org/2000/svg">
<g id="Group 48098611">
<path id="Vector 198" opacity="0.2" d="M12.9354 113.185L7.46673 132.115C4.22992 143.32 12.6377 154.5 24.3002 154.5H166.955C190.703 154.5 209.955 135.248 209.955 111.5V1L205.978 9.89012C203.809 14.7377 198.995 17.8584 193.684 17.8584C188.007 17.8584 182.94 21.4175 181.015 26.7573L176.701 38.7176C175.359 42.4397 171.827 44.9205 167.87 44.9205H166.932C163.046 44.9205 159.69 47.6385 158.882 51.4394C157.149 59.5968 145.777 60.2983 143.054 52.4159L142.319 50.288C139.822 43.0601 129.954 42.1828 126.221 48.8567L124.274 52.3387C122.392 55.7024 118.839 57.7861 114.985 57.7861H114.445C109.483 57.7861 105.075 60.9509 103.488 65.6517L85.2434 119.697C83.6815 124.323 79.3426 127.438 74.4595 127.438H72.9073C68.9147 127.438 65.3737 124.873 64.1289 121.079L61.2955 112.444C59.712 107.618 53.0459 107.204 50.8771 111.797C49.949 113.762 47.9704 115.016 45.7969 115.016H35.9556C32.9753 115.016 30.2036 113.487 28.6142 110.966C24.6198 104.63 15.0141 105.99 12.9354 113.185Z" fill="url(#paint0_linear_501_6774)"/>
<path id="Vector 197" d="M1 154.5L12.9354 113.185C15.0141 105.99 24.6198 104.63 28.6142 110.966V110.966C30.2036 113.487 32.9753 115.016 35.9556 115.016H45.7969C47.9704 115.016 49.949 113.762 50.8771 111.797V111.797C53.0459 107.204 59.712 107.618 61.2955 112.444L64.1289 121.079C65.3737 124.873 68.9147 127.438 72.9073 127.438H74.4595C79.3426 127.438 83.6815 124.323 85.2434 119.697L103.488 65.6517C105.075 60.9509 109.483 57.7861 114.445 57.7861H114.985C118.839 57.7861 122.392 55.7024 124.274 52.3387L126.221 48.8567C129.954 42.1828 139.822 43.0601 142.319 50.288L143.054 52.4159C145.777 60.2984 157.149 59.5968 158.882 51.4394V51.4394C159.69 47.6385 163.046 44.9205 166.932 44.9205H167.87C171.827 44.9205 175.359 42.4397 176.701 38.7176L181.015 26.7573C182.94 21.4175 188.007 17.8584 193.684 17.8584V17.8584C198.995 17.8584 203.809 14.7377 205.978 9.89011L209.955 1" stroke="#6C9B31"/>
</g>
<defs>
<linearGradient id="paint0_linear_501_6774" x1="105.478" y1="1" x2="105.478" y2="154.5" gradientUnits="userSpaceOnUse">
<stop stop-color="#6C9B31"/>
<stop offset="1" stop-color="#6C9B31" stop-opacity="0"/>
</linearGradient>
</defs>
</svg>
